<svg width="17" height="17" viewBox="0 0 17 17" fill="none" xmlns="http://www.w3.org/2000/svg">
<rect width="16" height="16" transform="translate(0.573242 0.963867)" fill="white" fill-opacity="0.01"/>
<path d="M8.55914 2.26698L8.55913 2.26698L2.15913 5.25365L2.15913 5.25365C2.14739 5.25913 2.13989 5.27091 2.13989 5.28386L2.13989 12.6439C2.13989 12.6567 2.14728 12.6685 2.15913 12.6741L8.55914 2.26698ZM8.55914 2.26698C8.56807 2.26281 8.57839 2.26281 8.58732 2.26698L8.79876 1.81389M8.55914 2.26698L8.79876 1.81389M8.79876 1.81389L8.58732 2.26698L14.9873 5.25365L14.9873 5.25368C14.9991 5.25916 15.0066 5.2709 15.0066 5.28386L15.0066 12.6439C15.0066 12.6568 14.9991 12.6685 14.9872 12.6741M8.79876 1.81389L14.9872 12.6741M14.9872 12.6741L8.58744 15.6607C8.57848 15.6649 8.5681 15.6649 8.55913 15.6607C8.55909 15.6607 8.55905 15.6607 8.55901 15.6607L2.15923 12.6741L14.9872 12.6741ZM2.90213 5.62986L2.20656 5.33424L2.20656 6.09002L2.20656 12.3042V12.6227L2.49512 12.7573L7.82845 15.2462L8.53989 15.5782L8.53989 14.7931L8.53989 8.35669V8.0259L8.23546 7.89652L2.90213 5.62986ZM8.60656 14.7931L8.60656 15.5782L9.318 15.2462L14.6513 12.7573L14.9399 12.6227V12.3042L14.9399 6.09002V5.33424L14.2443 5.62986L8.91099 7.89652L8.60656 8.0259V8.35669L8.60656 14.7931ZM8.37766 7.88452L8.57323 7.96764L8.7688 7.88452L13.8588 5.72126L14.8913 5.28244L13.8747 4.808L8.78467 2.43264L8.57323 2.33397L8.36178 2.43264L3.27175 4.808L2.2551 5.28244L3.28762 5.72126L8.37766 7.88452Z" fill="#1C2024" stroke="white"/>
</svg>
