<svg width="17" height="17" viewBox="0 0 17 17" fill="none" xmlns="http://www.w3.org/2000/svg">
<rect width="16" height="16" transform="translate(0.602539 0.49707)" fill="white" fill-opacity="0.01"/>
<path fill-rule="evenodd" clip-rule="evenodd" d="M3.58925 1.56372L3.53557 1.56369C3.29189 1.56346 3.08183 1.56326 2.89574 1.60794C2.31071 1.74839 1.85392 2.20518 1.71347 2.79021C1.66879 2.9763 1.66899 3.18636 1.66922 3.43004L1.66925 3.48372L1.66925 6.04372L1.66922 6.09741C1.66899 6.34109 1.66879 6.55116 1.71347 6.73724C1.85392 7.32227 2.31071 7.77906 2.89574 7.91952C3.08183 7.96419 3.29189 7.96399 3.53557 7.96376L3.58925 7.96372L6.14925 7.96372L6.20294 7.96376C6.44662 7.96399 6.65669 7.96419 6.84277 7.91952C7.4278 7.77906 7.88459 7.32227 8.02505 6.73724C8.06972 6.55116 8.06952 6.34109 8.06929 6.09741L8.06925 6.04372V3.48372L8.06929 3.43004C8.06952 3.18636 8.06972 2.9763 8.02505 2.79021C7.88459 2.20518 7.4278 1.74839 6.84277 1.60794C6.65669 1.56326 6.44662 1.56346 6.20294 1.56369L6.14925 1.56372L3.58925 1.56372ZM3.14475 2.64513C3.19066 2.6341 3.26096 2.63039 3.58925 2.63039L6.14925 2.63039C6.47756 2.63039 6.54786 2.6341 6.59376 2.64513C6.78877 2.69195 6.94103 2.8442 6.98786 3.03922C6.99888 3.08513 7.00259 3.15543 7.00259 3.48372L7.00259 6.04372C7.00259 6.37203 6.99888 6.44233 6.98786 6.48823C6.94103 6.68324 6.78877 6.8355 6.59376 6.88233C6.54786 6.89335 6.47756 6.89706 6.14925 6.89706L3.58925 6.89706C3.26096 6.89706 3.19066 6.89335 3.14475 6.88233C2.94973 6.8355 2.79748 6.68324 2.75066 6.48823C2.73963 6.44233 2.73592 6.37203 2.73592 6.04372L2.73592 3.48372C2.73592 3.15543 2.73963 3.08513 2.75066 3.03922C2.79748 2.8442 2.94973 2.69195 3.14475 2.64513ZM11.0559 1.56372L11.0022 1.56369C10.7586 1.56346 10.5485 1.56326 10.3624 1.60794C9.77737 1.74839 9.32058 2.20518 9.18013 2.79021C9.13545 2.9763 9.13565 3.18636 9.13589 3.43004L9.13592 3.48372V6.04372L9.13589 6.09741C9.13565 6.34109 9.13545 6.55116 9.18013 6.73724C9.32058 7.32227 9.77737 7.77906 10.3624 7.91952C10.5485 7.96419 10.7586 7.96399 11.0022 7.96376L11.0559 7.96372H13.6159L13.6696 7.96376C13.9133 7.96399 14.1233 7.96419 14.3095 7.91952C14.8944 7.77906 15.3513 7.32227 15.4918 6.73724C15.5363 6.55116 15.5362 6.34109 15.5359 6.09741V6.04372V3.48372V3.43004C15.5362 3.18636 15.5363 2.9763 15.4918 2.79021C15.3513 2.20518 14.8944 1.74839 14.3095 1.60794C14.1233 1.56326 13.9133 1.56346 13.6696 1.56369L13.6159 1.56372L11.0559 1.56372ZM10.6114 2.64513C10.6573 2.6341 10.7276 2.63039 11.0559 2.63039H13.6159C13.9442 2.63039 14.0145 2.6341 14.0604 2.64513C14.2554 2.69195 14.4077 2.8442 14.4545 3.03922C14.4655 3.08513 14.4693 3.15543 14.4693 3.48372V6.04372C14.4693 6.37203 14.4655 6.44233 14.4545 6.48823C14.4077 6.68324 14.2554 6.8355 14.0604 6.88233C14.0145 6.89335 13.9442 6.89706 13.6159 6.89706H11.0559C10.7276 6.89706 10.6573 6.89335 10.6114 6.88233C10.4164 6.8355 10.2641 6.68324 10.2173 6.48823C10.2063 6.44233 10.2026 6.37203 10.2026 6.04372V3.48372C10.2026 3.15543 10.2063 3.08513 10.2173 3.03922C10.2641 2.8442 10.4164 2.69195 10.6114 2.64513ZM3.53557 9.03036L3.58925 9.03039H6.14925L6.20294 9.03036C6.44662 9.03012 6.65669 9.02992 6.84277 9.0746C7.4278 9.21505 7.88459 9.67184 8.02505 10.2569C8.06972 10.443 8.06952 10.653 8.06929 10.8967L8.06925 10.9504V13.5104L8.06929 13.564C8.06952 13.8078 8.06972 14.0178 8.02505 14.2039C7.88459 14.7889 7.4278 15.2458 6.84277 15.3862C6.65669 15.4308 6.44662 15.4307 6.20294 15.4304H6.14925H3.58925H3.53557C3.29189 15.4307 3.08183 15.4308 2.89574 15.3862C2.31071 15.2458 1.85392 14.7889 1.71347 14.2039C1.66879 14.0178 1.66899 13.8078 1.66922 13.564L1.66925 13.5104L1.66925 10.9504L1.66922 10.8967C1.66899 10.653 1.66879 10.443 1.71347 10.2569C1.85392 9.67184 2.31071 9.21505 2.89574 9.0746C3.08183 9.02992 3.29189 9.03012 3.53557 9.03036ZM3.58925 10.0971C3.26096 10.0971 3.19066 10.1008 3.14475 10.1118C2.94973 10.1586 2.79748 10.3109 2.75066 10.5059C2.73963 10.5518 2.73592 10.6221 2.73592 10.9504V13.5104C2.73592 13.8387 2.73963 13.909 2.75066 13.9549C2.79748 14.1499 2.94973 14.3022 3.14475 14.349C3.19066 14.36 3.26096 14.3637 3.58925 14.3637H6.14925C6.47756 14.3637 6.54786 14.36 6.59376 14.349C6.78877 14.3022 6.94103 14.1499 6.98786 13.9549C6.99888 13.909 7.00259 13.8387 7.00259 13.5104V10.9504C7.00259 10.6221 6.99888 10.5518 6.98786 10.5059C6.94103 10.3109 6.78877 10.1586 6.59376 10.1118C6.54786 10.1008 6.47756 10.0971 6.14925 10.0971H3.58925ZM11.0559 9.03039L11.0022 9.03036C10.7586 9.03012 10.5485 9.02992 10.3624 9.0746C9.77737 9.21505 9.32058 9.67184 9.18013 10.2569C9.13545 10.443 9.13565 10.653 9.13589 10.8967L9.13592 10.9504V13.5104L9.13589 13.564C9.13565 13.8078 9.13545 14.0178 9.18013 14.2039C9.32058 14.7889 9.77737 15.2458 10.3624 15.3862C10.5485 15.4308 10.7586 15.4307 11.0022 15.4304H11.0559H13.6159H13.6696C13.9133 15.4307 14.1233 15.4308 14.3095 15.3862C14.8944 15.2458 15.3513 14.7889 15.4918 14.2039C15.5363 14.0178 15.5362 13.8078 15.5359 13.564V13.5104V10.9504V10.8967C15.5362 10.653 15.5363 10.443 15.4918 10.2569C15.3513 9.67184 14.8944 9.21505 14.3095 9.0746C14.1233 9.02992 13.9133 9.03012 13.6696 9.03036L13.6159 9.03039H11.0559ZM10.6114 10.1118C10.6573 10.1008 10.7276 10.0971 11.0559 10.0971H13.6159C13.9442 10.0971 14.0145 10.1008 14.0604 10.1118C14.2554 10.1586 14.4077 10.3109 14.4545 10.5059C14.4655 10.5518 14.4693 10.6221 14.4693 10.9504V13.5104C14.4693 13.8387 14.4655 13.909 14.4545 13.9549C14.4077 14.1499 14.2554 14.3022 14.0604 14.349C14.0145 14.36 13.9442 14.3637 13.6159 14.3637H11.0559C10.7276 14.3637 10.6573 14.36 10.6114 14.349C10.4164 14.3022 10.2641 14.1499 10.2173 13.9549C10.2063 13.909 10.2026 13.8387 10.2026 13.5104V10.9504C10.2026 10.6221 10.2063 10.5518 10.2173 10.5059C10.2641 10.3109 10.4164 10.1586 10.6114 10.1118Z" fill="#FDFDFE"/>
</svg>
