<svg width="24" height="25" viewBox="0 0 24 25" fill="none" xmlns="http://www.w3.org/2000/svg">
<path d="M12 8.53564C13.1 8.53564 14 7.63564 14 6.53564C14 5.43564 13.1 4.53564 12 4.53564C10.9 4.53564 10 5.43564 10 6.53564C10 7.63564 10.9 8.53564 12 8.53564Z" fill="#2E3A59"/>
<path d="M12 10.5356C10.9 10.5356 10 11.4356 10 12.5356C10 13.6356 10.9 14.5356 12 14.5356C13.1 14.5356 14 13.6356 14 12.5356C14 11.4356 13.1 10.5356 12 10.5356Z" fill="#2E3A59"/>
<path d="M10 18.5356C10 17.4356 10.9 16.5356 12 16.5356C13.1 16.5356 14 17.4356 14 18.5356C14 19.6356 13.1 20.5356 12 20.5356C10.9 20.5356 10 19.6356 10 18.5356Z" fill="#2E3A59"/>
</svg>
