<svg width="17" height="17" viewBox="0 0 17 17" fill="none" xmlns="http://www.w3.org/2000/svg">
<rect width="16" height="16" transform="translate(0.980469 0.63501)" fill="white" fill-opacity="0.01"/>
<path d="M7.96773 9.6471L8.04578 8.67034C6.64078 8.26521 5.61394 6.96939 5.61394 5.43503C5.61394 3.57567 7.12125 2.06836 8.9806 2.06836C10.84 2.06836 12.3473 3.57567 12.3473 5.43503C12.3473 6.96939 11.3204 8.26523 9.91541 8.67036L9.99345 9.64711C11.1858 9.79242 12.1659 10.2081 12.8919 10.9236C13.8135 11.8319 14.3206 13.2204 14.3206 15.1417C14.3206 15.1435 14.3203 15.144 14.3203 15.1441C14.3201 15.1445 14.3196 15.1454 14.3187 15.1464C14.3177 15.1473 14.3168 15.1478 14.3164 15.148L14.3164 15.148C14.3163 15.148 14.3158 15.1483 14.3141 15.1483H14.3139C14.3102 15.1483 14.3073 15.1453 14.3073 15.1416C14.3073 13.2225 13.8007 11.838 12.8826 10.9331L12.8826 10.9331C11.9644 10.0282 10.6331 9.60168 8.98055 9.60168C7.32805 9.60168 5.9968 10.0282 5.07861 10.9331L5.42474 11.2843L5.07861 10.9331C4.16044 11.838 3.65396 13.2225 3.65396 15.1416C3.65396 15.1434 3.65371 15.1439 3.65364 15.144L3.65364 15.1441C3.65345 15.1445 3.65298 15.1454 3.65202 15.1463C3.65107 15.1473 3.65021 15.1477 3.64977 15.1479L3.64975 15.1479C3.64961 15.148 3.64905 15.1483 3.64729 15.1483C3.64554 15.1483 3.64499 15.148 3.64484 15.1479L3.64482 15.1479C3.64438 15.1477 3.64352 15.1473 3.64256 15.1463C3.64161 15.1454 3.64113 15.1445 3.64095 15.1441C3.64091 15.144 3.64063 15.1435 3.64063 15.1416C3.64063 13.2203 4.1477 11.8318 5.06924 10.9236C5.79531 10.208 6.77538 9.79239 7.96773 9.6471ZM8.9806 2.08169C7.12861 2.08169 5.62727 3.58303 5.62727 5.43503C5.62727 7.28702 7.12861 8.78836 8.9806 8.78836C10.8326 8.78836 12.3339 7.28702 12.3339 5.43503C12.3339 3.58303 10.8326 2.08169 8.9806 2.08169Z" fill="#1C2024" stroke="white"/>
</svg>
