<svg width="22" height="22" viewBox="0 0 22 22" fill="none" xmlns="http://www.w3.org/2000/svg">
<g clip-path="url(#clip0_1115_21)">
<path fill-rule="evenodd" clip-rule="evenodd" d="M11.1032 3.92407C11.5822 3.92407 11.9705 4.31238 11.9705 4.79139V16.9338C11.9705 17.4128 11.5822 17.8011 11.1032 17.8011C10.6242 17.8011 10.2358 17.4128 10.2358 16.9338V4.79139C10.2358 4.31238 10.6242 3.92407 11.1032 3.92407Z" fill="white"/>
<path fill-rule="evenodd" clip-rule="evenodd" d="M4.16455 10.8626C4.16455 10.3835 4.55286 9.99524 5.03187 9.99524H17.1743C17.6533 9.99524 18.0416 10.3835 18.0416 10.8626C18.0416 11.3416 17.6533 11.7299 17.1743 11.7299H5.03187C4.55286 11.7299 4.16455 11.3416 4.16455 10.8626Z" fill="white"/>
</g>
<defs>
<clipPath id="clip0_1115_21">
<rect width="20.8156" height="20.8156" fill="white" transform="translate(0.695312 0.454773)"/>
</clipPath>
</defs>
</svg>
